# xmcd CD database file
#
# Track frame offsets:
#	150
#	13562
#	30145
#	40075
#	56655
#	72250
#	86377
#	96565
#	112125
#	130695
#	142637
#	159285
#	179217
#
# Disc length: 2542 seconds
#
# Revision: 0
# Processed by: cddbd v1.5.1PL0 Copyright (c) Steve Scherf et al.
# Submitted via: CDex 1.51
#
DISCID=a309ec0d
DTITLE=Carry and Ron - Legend In The Making
DYEAR=1995
DGENRE=Country
TTITLE0=Just Enough
TTITLE1=Deep Trouble
TTITLE2=That's All
TTITLE3=Legend In The Making
TTITLE4=Far Away From Home
TTITLE5=Somebody
TTITLE6=Juke Box Saturday Night
TTITLE7=We Still Walk Hand In Hand
TTITLE8=Love Me Like A Stranger
TTITLE9=Tall Drink Of Water
TTITLE10=Here's Locking At Love
TTITLE11=My Love Will Stay True
TTITLE12=Six Of One
EXTD=YEAR: 1995
EXTT0=
EXTT1=
EXTT2=
EXTT3=
EXTT4=
EXTT5=
EXTT6=
EXTT7=
EXTT8=
EXTT9=
EXTT10=
EXTT11=
EXTT12=
PLAYORDER=
